<svg id="Layer_2" data-name="Layer 2" xmlns="http://www.w3.org/2000/svg" viewBox="0 0 50.98 71.59"><defs><style>.cls-1{fill:#f7941d;stroke:#f7941d;stroke-miterlimit:10;stroke-width:5px;}</style></defs><path class="cls-1" d="M30.52,68.62a16.7,16.7,0,0,1-8.76-2.4,17,17,0,0,1-6.37-7A23.75,23.75,0,0,1,13,48.15a42,42,0,0,1,2-12.72A56.56,56.56,0,0,1,28.82,12.75a39.35,39.35,0,0,1,9.73-7.21A22.34,22.34,0,0,1,48.88,2.88a11.37,11.37,0,0,1,5.95,1.35A7.82,7.82,0,0,1,58,7.78a11.39,11.39,0,0,1,1,4.73,16.23,16.23,0,0,1-1.06,5.71A13.36,13.36,0,0,1,55,23a5.56,5.56,0,0,1-4,1.88,3.23,3.23,0,0,1-1.87-.58,6,6,0,0,1-1.7-2.12,12.21,12.21,0,0,0,2.85-2.85A24.87,24.87,0,0,0,53,14.75a10.41,10.41,0,0,0,1.19-4.44,3.8,3.8,0,0,0-1.06-2.74,4.77,4.77,0,0,0-3.53-1.1,14.07,14.07,0,0,0-7.86,2.74,35.6,35.6,0,0,0-7.69,7.26A63.46,63.46,0,0,0,22.87,38a39.28,39.28,0,0,0-1.7,11q0,7.43,3.35,11.54a10.07,10.07,0,0,0,8,4.12A10.72,10.72,0,0,0,39,62.59,20.58,20.58,0,0,0,44.16,57a32.57,32.57,0,0,0,3.61-7.54,34.3,34.3,0,0,0,1.7-8c-1.42-.27-2.87-.47-4.38-.61s-3.07-.2-4.71-.2c-.91,0-1.82,0-2.72,0l-2.89.12a7.88,7.88,0,0,1,2.42-4.2,6.72,6.72,0,0,1,4.38-1.34,17.75,17.75,0,0,1,5.14.77c1.73.52,3.48,1.07,5.27,1.67a51.76,51.76,0,0,0,5.23,1.47l-.85,2.53q-1.53,4.49-2.51,7.46c-.65,2-1.15,3.67-1.49,5.06A29,29,0,0,0,51.68,58c-.11,1.12-.17,2.27-.17,3.47s0,2.21.09,3.38.11,2.6.17,4.29A7,7,0,0,1,48,67.69a5.2,5.2,0,0,1-1.61-2.57A11.09,11.09,0,0,1,46,62.26v-.81a3.8,3.8,0,0,1,.08-.82,25.87,25.87,0,0,1-6.84,5.75A17,17,0,0,1,30.52,68.62Z" transform="translate(-10.51 -0.38)"/></svg>